<svg xmlns="http://www.w3.org/2000/svg" version="1.1" xmlns:xlink="http://www.w3.org/1999/xlink" xmlns:svgjs="http://svgjs.dev/svgjs" width="100%" height="100%" viewBox="0 0 1000 600"><rect width="1000" height="600" x="0" y="0" fill="black"/><g><circle r="166.66666666666666" cx="330.98127237955725" cy="353.20350010245045" fill="#4d00a3" transform="matrix(0.7607357344715313,0,0,0.7607357344715313,0,31.305480401601258)"/><path d="M312.3585246647882 428.203439710776L312.3585246647882 428.203439710776L287.92738619614636 428.203439710776Q287.0890628173204 428.203439710776 287.0890628173204 427.1555354872436L287.0890628173204 427.1555354872436L287.50822450673337 279.0417585211021Q287.50822450673337 278.20343514227613 288.3465478855593 278.20343514227613L288.3465478855593 278.20343514227613L331.9094234638362 278.20343514227613Q343.6160106467271 278.20343514227613 353.40643010658727 283.89205807002367L353.40643010658727 283.89205807002367Q363.19684956644744 289.5806809977712 369.0351730975567 299.16151961292485Q374.87349662866603 308.7423582280785 374.87349662866603 320.8381669797101L374.87349662866603 320.8381669797101Q374.87349662866603 328.74235883721184 372.4483468542052 335.1495446610959L372.4483468542052 335.1495446610959Q370.0231970797445 341.5866706056523 366.8196041678024 345.98786834448845Q363.6160112558604 350.41900620399707 360.98128063669316 352.5148146510619L360.98128063669316 352.5148146510619Q372.6579276989117 365.47888690219173 372.6579276989117 382.93397725417486L372.6579276989117 382.93397725417486L372.8675085436182 427.1555354872436Q372.8675085436182 428.203439710776 371.8196043200858 428.203439710776L371.8196043200858 428.203439710776L347.38846585144387 428.203439710776Q346.55014247261795 428.203439710776 346.55014247261795 427.57469717665657L346.55014247261795 427.57469717665657L346.55014247261795 382.93397725417486Q346.55014247261795 375.1495458793625 341.0711003895769 369.460922951615Q335.59205830653593 363.7723000238675 327.59804608701705 363.7723000238675L327.59804608701705 363.7723000238675L313.40642888832065 363.7723000238675L313.1968480436142 427.1555354872436Q313.1968480436142 428.203439710776 312.3585246647882 428.203439710776ZM331.9094234638362 304.0118191618464L331.9094234638362 304.0118191618464L313.40642888832065 304.0118191618464L313.40642888832065 337.90403576295256L331.9094234638362 337.90403576295256Q338.55613025309907 337.90403576295256 343.7657112500889 332.9339757313416Q348.9752922470787 327.993855820403 348.9752922470787 320.8381669797101L348.9752922470787 320.8381669797101Q348.9752922470787 314.01181946641304 343.9154118534507 309.01181931412975Q338.8555314598226 304.0118191618464 331.9094234638362 304.0118191618464Z " fill="#0081ff" transform="matrix(0.7607357344715313,0,0,0.7607357344715313,0,31.305480401601258)"/><path d="M605.5114121205454 426.1689442626906L605.5114121205454 426.1689442626906L581.7950783572302 426.1689442626906Q580.9812825908419 426.1689442626906 580.9812825908419 425.15169955470526L580.9812825908419 425.15169955470526L581.3881804740361 281.3714261146067Q581.3881804740361 280.5576303482185 582.2019762404243 280.5576303482185L582.2019762404243 280.5576303482185L624.4902919581004 280.5576303482185Q635.8543685530223 280.5576303482185 645.3583405390566 286.07981590585314L645.3583405390566 286.07981590585314Q654.862312525091 291.6020014634878 660.5298187552951 300.90252450792514Q666.1973249854991 310.2030475523625 666.1973249854991 321.94495789596465L666.1973249854991 321.94495789596465Q666.1973249854991 329.61788940762546 663.8431300898758 335.8376141935929L663.8431300898758 335.8376141935929Q661.4889351942527 342.08640311407424 658.3790728012689 346.35883088761267Q655.2692104082852 350.6603227956649 652.7115665710648 352.6948122116356L652.7115665710648 352.6948122116356Q664.0465790314729 365.2795824561399 664.0465790314729 382.2239728777242L664.0465790314729 382.2239728777242L664.25002797307 425.15169955470526Q664.25002797307 426.1689442626906 663.2327832650847 426.1689442626906L663.2327832650847 426.1689442626906L639.5164495017694 426.1689442626906Q638.7026537353811 426.1689442626906 638.7026537353811 425.5585974378994L638.7026537353811 425.5585974378994L638.7026537353811 382.2239728777242Q638.7026537353811 374.6672979041188 633.3839171193436 369.14511234648415Q628.065180503306 363.62292678884944 620.3050565881035 363.62292678884944L620.3050565881035 363.62292678884944L606.5286568285308 363.62292678884944L606.3252078869336 425.15169955470526Q606.3252078869336 426.1689442626906 605.5114121205454 426.1689442626906ZM624.4902919581004 305.61091429917155L624.4902919581004 305.61091429917155L606.5286568285308 305.61091429917155L606.5286568285308 338.5115145688686L624.4902919581004 338.5115145688686Q630.9425298201788 338.5115145688686 635.9996892255915 333.68686823956676Q641.0568486310044 328.8912860447788 641.0568486310044 321.94495789596465L641.0568486310044 321.94495789596465Q641.0568486310044 315.318335226803 636.1450098981609 310.4646247629873Q631.2331711653173 305.61091429917155 624.4902919581004 305.61091429917155ZM750.2798661341153 426.1689442626906L750.2798661341153 426.1689442626906L682.6476251203476 426.1689442626906Q681.8338293539593 426.1689442626906 681.8338293539593 425.15169955470526L681.8338293539593 425.15169955470526L682.0372782955565 281.3714261146067Q682.0372782955565 280.5576303482185 682.8510740619447 280.5576303482185L682.8510740619447 280.5576303482185L750.0764171925184 280.5576303482185Q750.8902129589067 280.5576303482185 750.8902129589067 281.5748750562038L750.8902129589067 281.5748750562038L750.8902129589067 304.97150333986644Q750.8902129589067 305.8143632407686 750.0764171925184 305.8143632407686L750.0764171925184 305.8143632407686L707.1777546500512 305.8143632407686L707.1777546500512 338.5115145688686L750.0764171925184 338.5115145688686Q750.8902129589067 338.5115145688686 750.8902129589067 339.3253103352569L750.8902129589067 339.3253103352569L751.0936619005038 363.01257996405826Q751.0936619005038 363.82637573044656 750.2798661341153 363.82637573044656L750.2798661341153 363.82637573044656L707.1777546500512 363.82637573044656L707.1777546500512 400.4181210834047L750.2798661341153 400.4181210834047Q751.0936619005038 400.4181210834047 751.0936619005038 401.43536579139004L751.0936619005038 401.43536579139004L751.0936619005038 425.3551484963023Q751.0936619005038 426.1689442626906 750.2798661341153 426.1689442626906ZM808.0012372786546 428.20343367866127L808.0012372786546 428.20343367866127Q796.6662248182467 428.20343367866127 787.5691507154065 422.59405571748505L787.5691507154065 422.59405571748505Q778.3848842090244 416.98467775630877 772.804570382362 407.4807057702743Q767.2533206902135 397.9767337842399 767.2533206902135 386.2057593061239L767.2533206902135 386.2057593061239L767.2533206902135 319.91046847999394Q767.2533206902135 308.4591994815305 772.8626986513898 299.07148403355154L772.8626986513898 299.07148403355154Q778.3848842090244 289.56751204751714 787.6854072534618 283.8709416827993Q796.9859302978991 278.2034354525953 808.0012372786546 278.2034354525953L808.0012372786546 278.2034354525953Q819.5687628151736 278.2034354525953 828.869285859611 283.72562101022993L828.869285859611 283.72562101022993Q838.1698089040483 289.3640631059201 843.6338661926552 298.75177855389904Q849.0979234812621 308.13949400187795 849.0979234812621 319.91046847999394L849.0979234812621 319.91046847999394L849.0979234812621 329.50163286957Q849.0979234812621 330.31542863595826 848.0806787732768 330.31542863595826L848.0806787732768 330.31542863595826L824.5677939515585 330.31542863595826Q823.7539981851703 330.31542863595826 823.7539981851703 329.50163286957L823.7539981851703 329.50163286957L823.7539981851703 321.53806001277053Q823.7539981851703 313.57448715597104 819.249057335521 308.342942943475Q814.7731806203856 303.14046286549285 808.0012372786546 303.14046286549285L808.0012372786546 303.14046286549285Q801.9849614342843 303.14046286549285 797.2765716430379 308.13949400187795Q792.5972459863053 313.16758927277687 792.5972459863053 319.91046847999394L792.5972459863053 319.91046847999394L792.5972459863053 386.2057593061239Q792.5972459863053 393.06489505139643 797.1893792394962 398.0057979187538Q801.7815124926872 402.97576492062495 808.0012372786546 402.97576492062495L808.0012372786546 402.97576492062495Q814.7731806203856 402.97576492062495 819.249057335521 398.1220544568092Q823.7539981851703 393.2683439929935 823.7539981851703 386.2057593061239L823.7539981851703 386.2057593061239L823.7539981851703 375.8879915537012L809.1347385246954 375.8879915537012Q808.0012372786546 375.8879915537012 808.0012372786546 374.87074684571587L808.0012372786546 374.87074684571587L808.0012372786546 351.4741185620532Q808.0012372786546 350.45687385406785 809.1347385246954 350.45687385406785L809.1347385246954 350.45687385406785L848.2841277148739 350.45687385406785Q849.0979234812621 350.45687385406785 849.0979234812621 351.4741185620532L849.0979234812621 351.4741185620532L849.0979234812621 386.2057593061239Q849.0979234812621 397.9767337842399 843.5757379236275 407.4807057702743L843.5757379236275 407.4807057702743Q837.9663599624512 416.98467775630877 828.7530293215555 422.59405571748505Q819.5687628151736 428.20343367866127 808.0012372786546 428.20343367866127ZM888.5379540165793 426.1689442626906L888.5379540165793 426.1689442626906L864.821620253264 426.1689442626906Q863.8043755452786 426.1689442626906 863.8043755452786 425.15169955470526L863.8043755452786 425.15169955470526L864.0078244868757 281.3714261146067Q864.0078244868757 280.5576303482185 864.821620253264 280.5576303482185L864.821620253264 280.5576303482185L888.3345050749822 280.5576303482185Q889.1483008413704 280.5576303482185 889.1483008413704 281.3714261146067L889.1483008413704 281.3714261146067L889.3517497829675 425.15169955470526Q889.3517497829675 426.1689442626906 888.5379540165793 426.1689442626906ZM952.3918575435443 426.1689442626906L952.3918575435443 426.1689442626906L928.7917803182845 426.1689442626906Q927.861728013841 426.1689442626906 927.861728013841 425.15169955470526L927.861728013841 425.15169955470526L927.861728013841 305.8143632407686L900.6867622433756 305.8143632407686Q899.6695175353902 305.8143632407686 899.6695175353902 304.76805439826944L899.6695175353902 304.76805439826944L899.8729664769874 281.3714261146067Q899.8729664769874 280.5576303482185 900.6867622433756 280.5576303482185L900.6867622433756 280.5576303482185L980.1771701388009 280.5576303482185Q981.3106713848417 280.5576303482185 981.3106713848417 281.3714261146067L981.3106713848417 281.3714261146067L981.3106713848417 304.76805439826944Q981.3106713848417 305.8143632407686 980.4968756184535 305.8143632407686L980.4968756184535 305.8143632407686L953.0022043683357 305.8143632407686L953.2056533099326 425.15169955470526Q953.2056533099326 426.1689442626906 952.3918575435443 426.1689442626906ZM984.3624055087978 425.15169955470526L984.3624055087978 425.15169955470526L1010.3166776296807 281.3714261146067Q1010.5201265712778 280.5576303482185 1011.36298647218 280.5576303482185L1011.36298647218 280.5576303482185L1041.7059429046567 280.5576303482185Q1042.519738671045 280.5576303482185 1042.723187612642 281.3714261146067L1042.723187612642 281.3714261146067L1067.6602150255396 425.15169955470526Q1067.7474074290812 426.1689442626906 1066.8464192591514 426.1689442626906L1066.8464192591514 426.1689442626906L1043.6532399170858 426.1689442626906Q1042.6069310745866 426.1689442626906 1042.519738671045 425.15169955470526L1042.519738671045 425.15169955470526L1040.2818003134773 409.80583653138365L1011.769884355374 409.80583653138365L1009.5028818632925 425.15169955470526Q1009.4156894597509 426.1689442626906 1008.4856371553071 426.1689442626906L1008.4856371553071 426.1689442626906L985.2052654096999 426.1689442626906Q984.3624055087978 426.1689442626906 984.3624055087978 425.15169955470526ZM1036.0675008089665 387.45551709022016L1027.4935811273758 328.6878371031817L1026.2728874777936 320.9277131879793L1025.3428351733498 328.6878371031817L1015.9551197253709 387.45551709022016L1036.0675008089665 387.45551709022016ZM1149.1851123369358 426.1689442626906L1149.1851123369358 426.1689442626906L1081.5528713231681 426.1689442626906Q1080.7390755567797 426.1689442626906 1080.7390755567797 425.15169955470526L1080.7390755567797 425.15169955470526L1080.9425244983768 281.5748750562038Q1080.9425244983768 280.5576303482185 1081.9597692063621 280.5576303482185L1081.9597692063621 280.5576303482185L1105.2401409519694 280.5576303482185Q1106.2864497944686 280.5576303482185 1106.2864497944686 281.5748750562038L1106.2864497944686 281.5748750562038L1106.0830008528715 400.4181210834047L1149.1851123369358 400.4181210834047Q1150.202357044921 400.4181210834047 1150.202357044921 401.43536579139004L1150.202357044921 401.43536579139004L1150.202357044921 425.15169955470526Q1150.202357044921 426.1689442626906 1149.1851123369358 426.1689442626906Z " fill="#a020f0" transform="matrix(0.7607357344715313,0,0,0.7607357344715313,0,31.305480401601258)"/></g></svg>